<?xml version="1.0" standalone="no"?>
<!DOCTYPE svg PUBLIC "-//W3C//DTD SVG 20010904//EN"
 "http://www.w3.org/TR/2001/REC-SVG-20010904/DTD/svg10.dtd">
<svg version="1.0" xmlns="http://www.w3.org/2000/svg"
 width="1024.000000pt" height="1024.000000pt" viewBox="0 0 1024.000000 1024.000000"
 preserveAspectRatio="xMidYMid meet">

<g transform="translate(0.000000,1024.000000) scale(0.100000,-0.100000)"
fill="#000000" stroke="none">
<path d="M4947 8199 c-906 -80 -1685 -512 -2225 -1232 -323 -431 -517 -911
-588 -1454 -21 -156 -24 -543 -5 -683 16 -127 58 -347 82 -440 139 -520 417
-1007 801 -1401 175 -179 319 -295 532 -430 928 -582 2086 -623 3060 -106 243
128 455 287 685 512 493 482 798 1081 908 1785 22 144 26 644 5 780 -99 654
-340 1173 -772 1662 -355 403 -876 738 -1380 886 -355 105 -772 151 -1103 121z
m-67 -807 l0 -68 -96 -17 c-424 -79 -837 -299 -1149 -612 -255 -257 -436 -546
-544 -872 -27 -81 -55 -181 -62 -220 l-13 -73 -68 0 c-80 0 -79 -4 -49 130
105 471 395 947 771 1263 229 193 520 354 809 448 133 43 314 87 369 88 l32 1
0 -68z m780 32 c592 -138 1126 -510 1455 -1012 163 -250 300 -587 340 -839 l7
-43 -69 0 -70 0 -17 83 c-46 219 -166 505 -296 707 -324 503 -866 871 -1443
982 l-117 22 0 69 0 69 53 -7 c28 -3 99 -17 157 -31z m-404 -208 c104 -49 168
-168 146 -274 -46 -220 -331 -275 -459 -87 -134 198 94 463 313 361z m1142
-732 l3 -81 -203 -6 c-212 -5 -277 -16 -361 -58 -51 -26 -114 -75 -126 -98 -9
-15 -2 -14 57 5 37 12 102 27 145 33 97 13 426 14 447 1 12 -8 16 -45 18 -215
l3 -205 -135 0 -135 0 -3 133 -3 132 -124 -2 c-150 -3 -231 -24 -312 -82 -58
-41 -94 -82 -124 -141 -43 -83 -45 -109 -45 -695 0 -669 2 -683 97 -781 58
-60 104 -78 205 -82 142 -6 256 39 295 118 15 29 18 62 18 182 l0 148 116 0
117 0 6 -147 c8 -176 -3 -288 -33 -336 -22 -35 -87 -94 -129 -116 -93 -49
-255 -77 -355 -61 -75 12 -152 42 -184 72 l-22 20 -36 -22 c-45 -28 -42 -45
12 -86 70 -53 144 -76 264 -82 127 -5 227 13 334 62 85 39 184 128 217 194 22
46 23 54 23 342 l0 295 -162 3 -163 2 0 70 0 70 -135 0 -135 0 0 175 0 175
395 0 395 0 -3 -547 c-2 -594 -1 -575 -59 -661 -33 -48 -101 -102 -129 -102
-11 0 -37 -17 -59 -39 -49 -48 -151 -102 -250 -133 -65 -20 -95 -23 -230 -23
-162 0 -205 8 -305 58 -117 57 -223 178 -299 337 -85 179 -80 131 -84 879 -3
710 -2 731 47 862 73 193 300 390 541 467 126 41 203 49 430 48 l155 -1 3 -81z
m-1720 -961 l-3 -1038 -27 -57 c-91 -195 -307 -308 -593 -311 -203 -2 -313 52
-374 183 -35 76 -36 182 -2 257 31 69 104 136 194 178 107 50 123 51 142 16 8
-16 37 -65 65 -108 27 -43 50 -81 50 -85 0 -3 -32 -21 -70 -39 -70 -32 -130
-85 -130 -115 0 -8 12 -26 26 -41 24 -24 29 -25 91 -18 171 18 291 85 339 190
l24 50 0 887 0 887 -37 10 c-21 6 -71 11 -110 11 l-73 0 0 90 0 90 245 0 246
0 -3 -1037z m212 3 c0 -641 -4 -1054 -10 -1087 -22 -122 -122 -267 -243 -353
-184 -131 -385 -186 -679 -186 l-128 0 0 63 0 62 197 1 c187 0 203 2 288 28
49 15 121 44 160 64 85 45 201 153 239 223 58 105 56 67 56 1187 l0 1032 60 0
60 0 0 -1034z m1690 549 l0 -215 -50 0 -50 0 0 215 0 215 50 0 50 0 0 -215z
m-3260 -910 l0 -65 -259 0 -260 0 -26 35 -27 34 24 30 23 30 263 0 262 1 0
-65z m4237 43 c36 -41 37 -48 7 -79 l-28 -29 -253 0 -254 0 2 65 2 65 252 0
c248 0 252 0 272 -22z m-4536 -518 c23 -119 73 -277 125 -398 218 -504 592
-897 1085 -1141 163 -81 316 -133 504 -172 77 -16 141 -29 143 -29 1 0 2 -29
2 -65 0 -76 6 -73 -121 -50 -303 57 -593 173 -854 342 -139 91 -220 157 -363
297 -289 282 -476 586 -597 968 -26 84 -75 292 -75 323 0 8 37 13 85 12 l49
-2 17 -85z m4439 71 c0 -33 -32 -180 -60 -278 -112 -388 -325 -733 -644 -1040
-238 -231 -498 -391 -832 -512 -91 -33 -302 -86 -379 -96 -27 -3 -60 -8 -72
-11 -22 -4 -23 -2 -23 65 l0 68 52 7 c87 12 307 72 421 115 295 113 567 291
801 526 306 308 511 700 600 1145 5 24 9 25 71 26 53 0 65 -2 65 -15z m-3052
-1176 c24 -7 27 -17 12 -46 -10 -18 -12 -18 -35 -3 -23 15 -45 12 -45 -6 0 -5
18 -19 40 -30 50 -26 73 -59 64 -94 -13 -55 -98 -76 -145 -37 l-24 20 22 22
c22 22 23 22 36 5 15 -21 52 -18 52 4 0 8 -18 24 -40 36 -22 11 -46 32 -54 46
-13 23 -13 29 3 52 9 15 27 31 39 36 22 8 30 8 75 -5z m559 -11 c30 -19 40
-76 19 -109 -20 -30 -20 -54 -1 -79 22 -29 18 -38 -12 -34 -20 2 -33 13 -48
40 -27 50 -45 49 -45 -2 0 -36 -2 -40 -25 -40 l-25 0 0 119 0 120 28 3 c38 6
83 -2 109 -18z m199 -54 l37 -81 23 72 c26 81 34 92 57 83 23 -9 21 -24 -22
-139 -32 -88 -39 -100 -60 -100 -21 0 -29 13 -67 105 -49 120 -53 140 -24 140
15 0 28 -19 56 -80z m565 69 c19 -7 40 -18 48 -25 12 -11 11 -16 -10 -32 -21
-18 -26 -18 -44 -6 -30 21 -61 17 -84 -12 -26 -33 -26 -54 -1 -81 28 -31 57
-37 85 -19 30 20 30 20 49 0 23 -22 20 -30 -18 -48 -55 -26 -101 -21 -142 17
-65 59 -51 161 26 199 41 21 47 21 91 7z m-1029 -24 c-4 -22 -10 -25 -43 -25
-33 0 -39 -3 -39 -21 0 -17 5 -20 33 -17 28 3 32 0 35 -24 3 -26 1 -28 -32
-28 -29 0 -36 -4 -36 -20 0 -17 7 -20 39 -20 35 0 39 -3 43 -30 l5 -30 -74 0
-74 0 3 120 2 120 72 0 c71 0 71 0 66 -25z m758 -95 l0 -120 -25 0 -25 0 0
120 0 120 25 0 25 0 0 -120z m590 95 c0 -23 -4 -25 -46 -25 -38 0 -45 -3 -42
-17 3 -14 12 -17 41 -15 37 4 38 3 35 -25 -3 -24 -8 -28 -40 -31 -32 -3 -38
-7 -38 -26 0 -20 5 -23 43 -22 39 1 42 -1 45 -26 l3 -28 -70 0 -71 0 0 120 0
120 70 0 c68 0 70 -1 70 -25z"/>
<path d="M5083 7090 c-41 -25 -53 -48 -53 -106 0 -41 5 -51 39 -85 32 -32 46
-39 78 -39 48 0 99 31 126 78 26 44 16 95 -28 139 -28 28 -40 33 -81 33 -31 0
-61 -7 -81 -20z"/>
<path d="M4880 3509 c0 -30 1 -31 32 -25 17 3 34 9 37 12 11 11 -17 39 -43 42
-23 3 -26 0 -26 -29z"/>
</g>
</svg>
